<?xml version="1.0" standalone="no"?><!DOCTYPE svg PUBLIC "-//W3C//DTD SVG 1.1//EN" "http://www.w3.org/Graphics/SVG/1.1/DTD/svg11.dtd"><svg t="1541675927502" class="icon" style="" viewBox="0 0 1024 1024" version="1.1" xmlns="http://www.w3.org/2000/svg" p-id="813" xmlns:xlink="http://www.w3.org/1999/xlink" width="200" height="200"><defs><style type="text/css"></style></defs><path d="M899.882667 768H853.333333v-128h-42.666666V384c0-161.450667-120.234667-298.666667-279.04-298.666667h-39.168C333.610667 85.333333 213.333333 222.549333 213.333333 384v256H170.666667v128s-27.178667 2.432-46.549334 0c-19.413333-2.474667-38.784 20.010667-38.784 42.666667v89.642666a37.973333 37.973333 0 0 0 37.589334 38.357334h778.154666a37.973333 37.973333 0 0 0 37.589334-38.357334V810.666667c0-49.408-38.784-42.666667-38.784-42.666667zM458.112 261.973333a26.88 26.88 0 0 1 26.624 27.050667 26.88 26.88 0 0 1-26.624 27.050667c-40.874667 0-74.069333 33.877333-74.069333 75.434666 0 14.933333-11.904 27.050667-26.624 27.050667a26.88 26.88 0 0 1-26.624-27.050667c0-71.466667 57.130667-129.536 127.317333-129.536z m-127.317333 205.610667c0-14.933333 11.989333-27.093333 26.624-27.093333a26.88 26.88 0 0 1 26.624 27.093333v92.245333a26.88 26.88 0 0 1-26.624 27.093334 26.88 26.88 0 0 1-26.624-27.093334v-92.245333zM213.333333 682.666667h597.333334v85.333333H213.333333v-85.333333z m682.666667 213.333333H128v-85.333333h768v85.333333z" fill="#1296db" p-id="814"></path></svg>