<?xml version="1.0" standalone="no"?><!DOCTYPE svg PUBLIC "-//W3C//DTD SVG 1.1//EN" "http://www.w3.org/Graphics/SVG/1.1/DTD/svg11.dtd"><svg t="1541828670611" class="icon" style="" viewBox="0 0 1024 1024" version="1.1" xmlns="http://www.w3.org/2000/svg" p-id="1895" xmlns:xlink="http://www.w3.org/1999/xlink" width="200" height="200"><defs><style type="text/css"></style></defs><path d="M638.999 892.887h113.855v61.684h-113.855v-61.684z" p-id="1896" fill="#1296db"></path><path d="M281.467 892.887h113.856v61.684h-113.856v-61.684z" p-id="1897" fill="#1296db"></path><path d="M638.999 74.838h113.855v29.75h-113.855v-29.75z" p-id="1898" fill="#1296db"></path><path d="M453.888 74.838h113.855v29.75h-113.855v-29.75z" p-id="1899" fill="#1296db"></path><path d="M281.467 74.838h113.856v30.843h-113.856v-30.843z" p-id="1900" fill="#1296db"></path><path d="M103.572 235.059h50.519v508.622h-50.519v-508.622z" p-id="1901" fill="#1296db"></path><path d="M867.538 235.059h50.519v508.622h-50.519v-508.622z" p-id="1902" fill="#1296db"></path><path d="M867.538 810.239c0 35.297-33.919 63.913-75.764 63.913h-561.92c-41.842 0-75.764-28.617-75.764-63.913v-641.74c0-35.297 33.922-63.913 75.764-63.913h561.92c41.845 0 75.764 28.617 75.764 63.913v641.74zM814.178 197.327h-608.687v13.573h608.687v-13.573zM814.178 767.841h-608.687v13.573h608.687v-13.573zM216.412 215.911v547.1h13.573v-547.1h-13.573zM246.684 215.911v547.1h13.573v-547.1h-13.573zM276.957 215.911v547.1h13.573v-547.1h-13.573zM307.229 215.911v547.1h13.573v-547.1h-13.573zM337.498 215.911v547.1h13.573v-547.1h-13.573zM367.773 215.911v547.1h13.573v-547.1h-13.573zM398.044 215.911v547.1h13.573v-547.1h-13.573zM428.319 215.911v547.1h13.573v-547.1h-13.573zM458.587 215.911v547.1h13.573v-547.1h-13.573zM488.861 215.911v547.1h13.573v-547.1h-13.573zM519.133 215.911v547.1h13.573v-547.1h-13.573zM549.407 215.911v547.1h13.573v-547.1h-13.573zM579.68 215.911v547.1h13.573v-547.1h-13.573zM609.951 215.911v547.1h13.573v-547.1h-13.573zM640.224 215.911v547.1h13.573v-547.1h-13.573zM670.494 215.911v547.1h13.573v-547.1h-13.573zM700.768 215.911v547.1h13.573v-547.1h-13.573zM731.039 215.911v547.1h13.573v-547.1h-13.573zM761.313 215.911v547.1h13.573v-547.1h-13.573zM791.584 215.911v547.1h13.573v-547.1h-13.573z" p-id="1903" fill="#1296db"></path></svg>